<svg xmlns="http://www.w3.org/2000/svg" width="78" height="76" viewBox="0 0 78 76">
  <g id="check_img" transform="translate(-2401 -3678)">
    <g id="Rectángulo_33" data-name="Rectángulo 33" transform="translate(2401 3678)" fill="#3f826d" stroke="#707070" stroke-width="1" opacity="0.81">
      <rect width="78" height="76" rx="38" stroke="none"/>
      <rect x="0.5" y="0.5" width="77" height="75" rx="37.5" fill="none"/>
    </g>
    <path id="Icon_awesome-check" data-name="Icon awesome-check" d="M15.666,38.3.675,23.307a2.306,2.306,0,0,1,0-3.261l3.261-3.261a2.306,2.306,0,0,1,3.261,0l10.1,10.1L38.926,5.253a2.306,2.306,0,0,1,3.261,0l3.261,3.261a2.306,2.306,0,0,1,0,3.261L18.927,38.3A2.306,2.306,0,0,1,15.666,38.3Z" transform="translate(2417.088 3696.028)" fill="#f7f7ff" opacity="0.81"/>
  </g>
</svg>
